<svg width="1600" height="900" viewBox="0 0 1600 900" fill="none" xmlns="http://www.w3.org/2000/svg">
  <rect width="1600" height="900" fill="#020617"/>
  <rect x="70" y="70" width="1460" height="760" rx="36" fill="#0B1120" stroke="rgba(255,255,255,0.08)"/>
  <rect x="110" y="110" width="1380" height="80" rx="20" fill="rgba(255,255,255,0.03)" stroke="rgba(255,255,255,0.08)"/>
  <rect x="110" y="230" width="610" height="560" rx="28" fill="rgba(255,255,255,0.04)" stroke="rgba(6,182,212,0.25)"/>
  <rect x="760" y="230" width="730" height="270" rx="28" fill="rgba(255,255,255,0.04)" stroke="rgba(168,85,247,0.25)"/>
  <rect x="760" y="530" width="730" height="260" rx="28" fill="rgba(255,255,255,0.04)" stroke="rgba(16,185,129,0.25)"/>

  <circle cx="186" cy="150" r="22" fill="#06b6d4"/>
  <rect x="232" y="134" width="170" height="12" rx="6" fill="rgba(255,255,255,0.55)"/>
  <rect x="232" y="154" width="110" height="10" rx="5" fill="rgba(255,255,255,0.25)"/>
  <rect x="1220" y="126" width="210" height="36" rx="18" fill="rgba(6,182,212,0.12)" stroke="rgba(6,182,212,0.35)"/>
  <rect x="1238" y="137" width="16" height="16" rx="4" fill="#06b6d4"/>
  <rect x="1262" y="142" width="120" height="8" rx="4" fill="rgba(255,255,255,0.6)"/>

  <rect x="150" y="280" width="200" height="24" rx="12" fill="rgba(6,182,212,0.18)"/>
  <rect x="150" y="328" width="380" height="18" rx="9" fill="rgba(255,255,255,0.45)"/>
  <rect x="150" y="360" width="310" height="12" rx="6" fill="rgba(255,255,255,0.18)"/>
  <rect x="150" y="410" width="520" height="120" rx="22" fill="rgba(2,6,23,0.72)" stroke="rgba(255,255,255,0.08)"/>
  <rect x="180" y="442" width="110" height="14" rx="7" fill="#22c55e"/>
  <rect x="180" y="472" width="270" height="10" rx="5" fill="rgba(255,255,255,0.22)"/>
  <rect x="180" y="492" width="190" height="10" rx="5" fill="rgba(255,255,255,0.18)"/>

  <rect x="150" y="570" width="200" height="24" rx="12" fill="rgba(168,85,247,0.18)"/>
  <rect x="150" y="620" width="420" height="12" rx="6" fill="rgba(255,255,255,0.24)"/>
  <rect x="150" y="650" width="360" height="12" rx="6" fill="rgba(255,255,255,0.18)"/>
  <rect x="150" y="680" width="300" height="12" rx="6" fill="rgba(255,255,255,0.12)"/>
  <rect x="150" y="720" width="210" height="48" rx="24" fill="rgba(6,182,212,0.18)" stroke="rgba(6,182,212,0.35)"/>
  <rect x="196" y="736" width="120" height="10" rx="5" fill="rgba(255,255,255,0.7)"/>

  <rect x="800" y="274" width="170" height="18" rx="9" fill="rgba(168,85,247,0.18)"/>
  <rect x="800" y="316" width="520" height="18" rx="9" fill="rgba(255,255,255,0.4)"/>
  <rect x="800" y="344" width="430" height="12" rx="6" fill="rgba(255,255,255,0.16)"/>
  <rect x="800" y="384" width="620" height="68" rx="18" fill="rgba(2,6,23,0.65)" stroke="rgba(255,255,255,0.08)"/>
  <circle cx="840" cy="418" r="12" fill="#a855f7"/>
  <rect x="868" y="410" width="150" height="8" rx="4" fill="rgba(255,255,255,0.55)"/>
  <rect x="868" y="426" width="230" height="8" rx="4" fill="rgba(255,255,255,0.22)"/>
  <circle cx="1418" cy="418" r="16" fill="rgba(34,197,94,0.18)" stroke="rgba(34,197,94,0.4)"/>

  <rect x="800" y="554" width="180" height="18" rx="9" fill="rgba(16,185,129,0.18)"/>
  <rect x="800" y="598" width="250" height="12" rx="6" fill="rgba(255,255,255,0.38)"/>
  <rect x="800" y="622" width="410" height="12" rx="6" fill="rgba(255,255,255,0.18)"/>
  <rect x="800" y="660" width="620" height="72" rx="18" fill="rgba(2,6,23,0.65)" stroke="rgba(255,255,255,0.08)"/>
  <rect x="832" y="686" width="130" height="10" rx="5" fill="#10b981"/>
  <rect x="980" y="686" width="100" height="10" rx="5" fill="rgba(255,255,255,0.24)"/>
  <rect x="832" y="706" width="280" height="10" rx="5" fill="rgba(255,255,255,0.18)"/>
  <rect x="1240" y="676" width="140" height="30" rx="15" fill="rgba(6,182,212,0.12)" stroke="rgba(6,182,212,0.34)"/>
  <rect x="1260" y="684" width="100" height="10" rx="5" fill="rgba(255,255,255,0.66)"/>
</svg>
